<svg width="1440" height="837" viewBox="0 0 1440 837" fill="none" xmlns="http://www.w3.org/2000/svg">
<path d="M-635.38 1049.37C-438.303 969.936 -121.957 857.872 -163.046 1117.9C-215.335 1448.8 -698.493 1655.43 -397.81 1709.5" stroke="url(#paint0_linear_1_160)" stroke-width="8.2894"/>
<path d="M-563.756 1026.81C-366.68 947.378 -50.3334 835.313 -91.4223 1095.34C-143.711 1426.24 -626.869 1632.87 -326.186 1686.94" stroke="url(#paint1_linear_1_160)" stroke-width="8.2894"/>
<path d="M-495.083 996.436C-298.006 916.999 18.3401 804.935 -22.7488 1064.96C-75.0373 1395.86 -558.196 1602.49 -257.513 1656.56" stroke="url(#paint2_linear_1_160)" stroke-width="8.2894"/>
<path d="M-429.724 959.461C-232.647 880.024 83.6992 767.959 42.6103 1027.99C-9.67814 1358.89 -492.837 1565.52 -192.154 1619.59" stroke="url(#paint3_linear_1_160)" stroke-width="8.2894"/>
<path d="M-367.434 917.522C-170.357 838.085 145.989 726.02 104.9 986.047C52.6117 1316.95 -430.547 1523.58 -129.864 1577.65" stroke="url(#paint4_linear_1_160)" stroke-width="8.2894"/>
<path d="M-307.542 872.224C-110.466 792.787 205.88 680.722 164.792 940.749C112.503 1271.65 -370.655 1478.28 -69.9725 1532.35" stroke="url(#paint5_linear_1_160)" stroke-width="8.2894"/>
<path d="M-249.223 824.918C-52.1467 745.481 264.199 633.417 223.111 893.444C170.822 1224.35 -312.336 1430.97 -11.6535 1485.04" stroke="url(#paint6_linear_1_160)" stroke-width="8.2894"/>
<path d="M-191.693 776.657C5.38359 697.221 321.73 585.156 280.641 845.183C228.352 1176.09 -254.806 1382.71 45.8768 1436.78" stroke="url(#paint7_linear_1_160)" stroke-width="8.2894"/>
<path d="M-134.297 728.236C62.7801 648.799 379.126 536.734 338.037 796.761C285.749 1127.66 -197.41 1334.29 103.273 1388.36" stroke="url(#paint8_linear_1_160)" stroke-width="8.2894"/>
<path d="M-76.5372 680.25C120.54 600.813 436.886 488.748 395.797 748.775C343.508 1079.68 -139.65 1286.31 161.033 1340.38" stroke="url(#paint9_linear_1_160)" stroke-width="8.2894"/>
<path d="M-18.058 633.14C179.019 553.703 495.365 441.639 454.276 701.666C401.987 1032.57 -81.1711 1239.2 219.512 1293.27" stroke="url(#paint10_linear_1_160)" stroke-width="8.2894"/>
<path d="M41.3699 587.237C238.447 507.8 554.793 395.736 513.704 655.762C461.415 986.665 -21.7432 1193.29 278.94 1247.36" stroke="url(#paint11_linear_1_160)" stroke-width="8.2894"/>
<path d="M101.884 542.774C298.961 463.337 615.307 351.272 574.218 611.299C521.93 942.201 38.7712 1148.83 339.454 1202.9" stroke="url(#paint12_linear_1_160)" stroke-width="8.2894"/>
<path d="M163.907 499.618C360.984 420.181 677.33 308.117 636.241 568.143C583.953 899.046 100.794 1105.67 401.477 1159.74" stroke="url(#paint13_linear_1_160)" stroke-width="8.2894"/>
<path d="M226.26 457.774C423.337 378.337 739.683 266.272 698.594 526.299C646.306 857.202 163.147 1063.83 463.83 1117.9" stroke="url(#paint14_linear_1_160)" stroke-width="8.2894"/>
<path d="M289.211 416.835C486.288 337.398 802.634 225.333 761.545 485.36C709.257 816.262 226.098 1022.89 526.781 1076.96" stroke="url(#paint15_linear_1_160)" stroke-width="8.2894"/>
<path d="M352.827 376.934C549.903 297.497 866.249 185.432 825.16 445.459C772.872 776.361 289.713 982.99 590.396 1037.06" stroke="url(#paint16_linear_1_160)" stroke-width="8.2894"/>
<path d="M417.184 338.241C614.26 258.805 930.606 146.74 889.518 406.767C837.229 737.669 354.07 944.297 654.753 998.367" stroke="url(#paint17_linear_1_160)" stroke-width="8.2894"/>
<path d="M482.378 300.978C679.455 221.541 995.801 109.476 954.712 369.503C902.424 700.406 419.265 907.034 719.948 961.104" stroke="url(#paint18_linear_1_160)" stroke-width="8.2894"/>
<path d="M548.527 265.437C745.604 186 1061.95 73.935 1020.86 333.962C968.573 664.864 485.414 871.492 786.097 925.563" stroke="url(#paint19_linear_1_160)" stroke-width="8.2894"/>
<path d="M615.778 232.023C812.854 152.586 1129.2 40.5214 1088.11 300.548C1035.82 631.451 552.664 838.079 853.347 892.149" stroke="url(#paint20_linear_1_160)" stroke-width="8.2894"/>
<path d="M684.308 201.321C881.384 121.884 1197.73 9.81929 1156.64 269.846C1104.35 600.749 621.195 807.377 921.878 861.447" stroke="url(#paint21_linear_1_160)" stroke-width="8.2894"/>
<path d="M754.335 174.197C951.412 94.7603 1267.76 -17.3042 1226.67 242.723C1174.38 573.625 691.222 780.253 991.905 834.323" stroke="url(#paint22_linear_1_160)" stroke-width="8.2894"/>
<path d="M826.041 151.966C1023.12 72.5294 1339.46 -39.5352 1298.38 220.492C1246.09 551.394 762.928 758.022 1063.61 812.092" stroke="url(#paint23_linear_1_160)" stroke-width="8.2894"/>
<path d="M898.842 135.8C1095.92 56.3626 1412.26 -55.7019 1371.18 204.325C1318.89 535.227 835.729 741.855 1136.41 795.926" stroke="url(#paint24_linear_1_160)" stroke-width="8.2894"/>
<defs>
<linearGradient id="paint0_linear_1_160" x1="-536.875" y1="991.221" x2="-186.491" y2="1584.75" gradientUnits="userSpaceOnUse">
<stop stop-color="#D9DFD0" stop-opacity="0"/>
<stop offset="0.666667" stop-color="#D9DFD0"/>
<stop offset="1" stop-color="#D9DFD0" stop-opacity="0"/>
</linearGradient>
<linearGradient id="paint1_linear_1_160" x1="-465.251" y1="968.663" x2="-114.867" y2="1562.19" gradientUnits="userSpaceOnUse">
<stop stop-color="#D9DFD0" stop-opacity="0"/>
<stop offset="0.666667" stop-color="#D9DFD0"/>
<stop offset="1" stop-color="#D9DFD0" stop-opacity="0"/>
</linearGradient>
<linearGradient id="paint2_linear_1_160" x1="-396.578" y1="938.284" x2="-46.1936" y2="1531.81" gradientUnits="userSpaceOnUse">
<stop stop-color="#D9DFD0" stop-opacity="0"/>
<stop offset="0.666667" stop-color="#D9DFD0"/>
<stop offset="1" stop-color="#D9DFD0" stop-opacity="0"/>
</linearGradient>
<linearGradient id="paint3_linear_1_160" x1="-331.218" y1="901.309" x2="19.1655" y2="1494.84" gradientUnits="userSpaceOnUse">
<stop stop-color="#D9DFD0" stop-opacity="0"/>
<stop offset="0.666667" stop-color="#D9DFD0"/>
<stop offset="1" stop-color="#D9DFD0" stop-opacity="0"/>
</linearGradient>
<linearGradient id="paint4_linear_1_160" x1="-268.929" y1="859.37" x2="81.4553" y2="1452.9" gradientUnits="userSpaceOnUse">
<stop stop-color="#D9DFD0" stop-opacity="0"/>
<stop offset="0.666667" stop-color="#D9DFD0"/>
<stop offset="1" stop-color="#D9DFD0" stop-opacity="0"/>
</linearGradient>
<linearGradient id="paint5_linear_1_160" x1="-209.037" y1="814.072" x2="141.347" y2="1407.6" gradientUnits="userSpaceOnUse">
<stop stop-color="#D9DFD0" stop-opacity="0"/>
<stop offset="0.666667" stop-color="#D9DFD0"/>
<stop offset="1" stop-color="#D9DFD0" stop-opacity="0"/>
</linearGradient>
<linearGradient id="paint6_linear_1_160" x1="-150.718" y1="766.766" x2="199.666" y2="1360.29" gradientUnits="userSpaceOnUse">
<stop stop-color="#D9DFD0" stop-opacity="0"/>
<stop offset="0.666667" stop-color="#D9DFD0"/>
<stop offset="1" stop-color="#D9DFD0" stop-opacity="0"/>
</linearGradient>
<linearGradient id="paint7_linear_1_160" x1="-93.1879" y1="718.506" x2="257.196" y2="1312.03" gradientUnits="userSpaceOnUse">
<stop stop-color="#D9DFD0" stop-opacity="0"/>
<stop offset="0.666667" stop-color="#D9DFD0"/>
<stop offset="1" stop-color="#D9DFD0" stop-opacity="0"/>
</linearGradient>
<linearGradient id="paint8_linear_1_160" x1="-35.7914" y1="670.084" x2="314.593" y2="1263.61" gradientUnits="userSpaceOnUse">
<stop stop-color="#D9DFD0" stop-opacity="0"/>
<stop offset="0.666667" stop-color="#D9DFD0"/>
<stop offset="1" stop-color="#D9DFD0" stop-opacity="0"/>
</linearGradient>
<linearGradient id="paint9_linear_1_160" x1="21.968" y1="622.098" x2="372.352" y2="1215.62" gradientUnits="userSpaceOnUse">
<stop stop-color="#D9DFD0" stop-opacity="0"/>
<stop offset="0.666667" stop-color="#D9DFD0"/>
<stop offset="1" stop-color="#D9DFD0" stop-opacity="0"/>
</linearGradient>
<linearGradient id="paint10_linear_1_160" x1="80.4472" y1="574.989" x2="430.831" y2="1168.52" gradientUnits="userSpaceOnUse">
<stop stop-color="#D9DFD0" stop-opacity="0"/>
<stop offset="0.666667" stop-color="#D9DFD0"/>
<stop offset="1" stop-color="#D9DFD0" stop-opacity="0"/>
</linearGradient>
<linearGradient id="paint11_linear_1_160" x1="139.875" y1="529.085" x2="490.259" y2="1122.61" gradientUnits="userSpaceOnUse">
<stop stop-color="#D9DFD0" stop-opacity="0"/>
<stop offset="0.666667" stop-color="#D9DFD0"/>
<stop offset="1" stop-color="#D9DFD0" stop-opacity="0"/>
</linearGradient>
<linearGradient id="paint12_linear_1_160" x1="200.39" y1="484.622" x2="550.773" y2="1078.15" gradientUnits="userSpaceOnUse">
<stop stop-color="#D9DFD0" stop-opacity="0"/>
<stop offset="0.666667" stop-color="#D9DFD0"/>
<stop offset="1" stop-color="#D9DFD0" stop-opacity="0"/>
</linearGradient>
<linearGradient id="paint13_linear_1_160" x1="262.412" y1="441.466" x2="612.796" y2="1034.99" gradientUnits="userSpaceOnUse">
<stop stop-color="#D9DFD0" stop-opacity="0"/>
<stop offset="0.666667" stop-color="#D9DFD0"/>
<stop offset="1" stop-color="#D9DFD0" stop-opacity="0"/>
</linearGradient>
<linearGradient id="paint14_linear_1_160" x1="324.765" y1="399.622" x2="675.149" y2="993.149" gradientUnits="userSpaceOnUse">
<stop stop-color="#D9DFD0" stop-opacity="0"/>
<stop offset="0.666667" stop-color="#D9DFD0"/>
<stop offset="1" stop-color="#D9DFD0" stop-opacity="0"/>
</linearGradient>
<linearGradient id="paint15_linear_1_160" x1="387.717" y1="358.683" x2="738.101" y2="952.21" gradientUnits="userSpaceOnUse">
<stop stop-color="#D9DFD0" stop-opacity="0"/>
<stop offset="0.666667" stop-color="#D9DFD0"/>
<stop offset="1" stop-color="#D9DFD0" stop-opacity="0"/>
</linearGradient>
<linearGradient id="paint16_linear_1_160" x1="451.332" y1="318.782" x2="801.716" y2="912.309" gradientUnits="userSpaceOnUse">
<stop stop-color="#D9DFD0" stop-opacity="0"/>
<stop offset="0.666667" stop-color="#D9DFD0"/>
<stop offset="1" stop-color="#D9DFD0" stop-opacity="0"/>
</linearGradient>
<linearGradient id="paint17_linear_1_160" x1="515.689" y1="280.09" x2="866.073" y2="873.617" gradientUnits="userSpaceOnUse">
<stop stop-color="#D9DFD0" stop-opacity="0"/>
<stop offset="0.666667" stop-color="#D9DFD0"/>
<stop offset="1" stop-color="#D9DFD0" stop-opacity="0"/>
</linearGradient>
<linearGradient id="paint18_linear_1_160" x1="580.883" y1="242.826" x2="931.267" y2="836.353" gradientUnits="userSpaceOnUse">
<stop stop-color="#D9DFD0" stop-opacity="0"/>
<stop offset="0.666667" stop-color="#D9DFD0"/>
<stop offset="1" stop-color="#D9DFD0" stop-opacity="0"/>
</linearGradient>
<linearGradient id="paint19_linear_1_160" x1="647.032" y1="207.285" x2="997.416" y2="800.812" gradientUnits="userSpaceOnUse">
<stop stop-color="#D9DFD0" stop-opacity="0"/>
<stop offset="0.666667" stop-color="#D9DFD0"/>
<stop offset="1" stop-color="#D9DFD0" stop-opacity="0"/>
</linearGradient>
<linearGradient id="paint20_linear_1_160" x1="714.283" y1="173.871" x2="1064.67" y2="767.398" gradientUnits="userSpaceOnUse">
<stop stop-color="#D9DFD0" stop-opacity="0"/>
<stop offset="0.666667" stop-color="#D9DFD0"/>
<stop offset="1" stop-color="#D9DFD0" stop-opacity="0"/>
</linearGradient>
<linearGradient id="paint21_linear_1_160" x1="782.813" y1="143.169" x2="1133.2" y2="736.696" gradientUnits="userSpaceOnUse">
<stop stop-color="#D9DFD0" stop-opacity="0"/>
<stop offset="0.666667" stop-color="#D9DFD0"/>
<stop offset="1" stop-color="#D9DFD0" stop-opacity="0"/>
</linearGradient>
<linearGradient id="paint22_linear_1_160" x1="852.841" y1="116.046" x2="1203.22" y2="709.573" gradientUnits="userSpaceOnUse">
<stop stop-color="#D9DFD0" stop-opacity="0"/>
<stop offset="0.666667" stop-color="#D9DFD0"/>
<stop offset="1" stop-color="#D9DFD0" stop-opacity="0"/>
</linearGradient>
<linearGradient id="paint23_linear_1_160" x1="924.546" y1="93.8146" x2="1274.93" y2="687.342" gradientUnits="userSpaceOnUse">
<stop stop-color="#D9DFD0" stop-opacity="0"/>
<stop offset="0.666667" stop-color="#D9DFD0"/>
<stop offset="1" stop-color="#D9DFD0" stop-opacity="0"/>
</linearGradient>
<linearGradient id="paint24_linear_1_160" x1="997.347" y1="77.6478" x2="1347.73" y2="671.175" gradientUnits="userSpaceOnUse">
<stop stop-color="#D9DFD0" stop-opacity="0"/>
<stop offset="0.666667" stop-color="#D9DFD0"/>
<stop offset="1" stop-color="#D9DFD0" stop-opacity="0"/>
</linearGradient>
</defs>
</svg>
