<svg width="1440" height="1030" viewBox="0 0 1440 1030" fill="none" xmlns="http://www.w3.org/2000/svg">
<path d="M1935.37 690.169C1723.99 625.76 1386.08 538.376 1452.25 804.036C1536.46 1142.11 2055.77 1312.32 1749.17 1395.63" stroke="url(#paint0_linear_1_110)" stroke-width="8.2894"/>
<path d="M1859.31 707.868C1647.93 643.459 1310.02 556.075 1376.19 821.735C1460.4 1159.81 1979.71 1330.02 1673.11 1413.33" stroke="url(#paint1_linear_1_110)" stroke-width="8.2894"/>
<path d="M1782.3 720.834C1570.92 656.425 1233.01 569.041 1299.18 834.701C1383.39 1172.77 1902.7 1342.98 1596.1 1426.29" stroke="url(#paint2_linear_1_110)" stroke-width="8.2894"/>
<path d="M1704.53 727.945C1493.15 663.537 1155.24 576.152 1221.41 841.812C1305.62 1179.88 1824.93 1350.09 1518.33 1433.41" stroke="url(#paint3_linear_1_110)" stroke-width="8.2894"/>
<path d="M1626.44 727.972C1415.05 663.564 1077.14 576.179 1143.32 841.839C1227.52 1179.91 1746.84 1350.12 1440.23 1433.43" stroke="url(#paint4_linear_1_110)" stroke-width="8.2894"/>
<path d="M1548.77 719.825C1337.38 655.417 999.474 568.032 1065.65 833.692C1149.85 1171.76 1669.17 1341.97 1362.56 1425.29" stroke="url(#paint5_linear_1_110)" stroke-width="8.2894"/>
<path d="M1472.52 702.956C1261.13 638.548 923.225 551.163 989.396 816.823C1073.6 1154.89 1592.92 1325.11 1286.31 1408.42" stroke="url(#paint6_linear_1_110)" stroke-width="8.2894"/>
<path d="M1398.61 677.717C1187.23 613.308 849.32 525.924 915.492 791.584C999.7 1129.66 1519.01 1299.87 1212.41 1383.18" stroke="url(#paint7_linear_1_110)" stroke-width="8.2894"/>
<path d="M1327.54 645.343C1116.16 580.935 778.251 493.55 844.423 759.21C928.631 1097.28 1447.94 1267.49 1141.34 1350.8" stroke="url(#paint8_linear_1_110)" stroke-width="8.2894"/>
<path d="M1259.2 607.548C1047.82 543.14 709.912 455.755 776.083 721.415C860.291 1059.49 1379.6 1229.7 1073 1313.01" stroke="url(#paint9_linear_1_110)" stroke-width="8.2894"/>
<path d="M1193.05 566.055C981.662 501.647 643.752 414.262 709.924 679.923C794.132 1017.99 1313.44 1188.2 1006.84 1271.52" stroke="url(#paint10_linear_1_110)" stroke-width="8.2894"/>
<path d="M1128.33 522.34C916.949 457.932 579.039 370.547 645.211 636.207C729.419 974.278 1248.73 1144.49 942.129 1227.8" stroke="url(#paint11_linear_1_110)" stroke-width="8.2894"/>
<path d="M1064.35 477.564C852.966 413.155 515.056 325.771 581.228 591.431C665.436 929.502 1184.75 1099.71 878.146 1183.02" stroke="url(#paint12_linear_1_110)" stroke-width="8.2894"/>
<path d="M1000.49 431.183C789.108 366.775 451.198 279.39 517.37 545.05C601.578 883.121 1120.89 1053.33 814.288 1136.64" stroke="url(#paint13_linear_1_110)" stroke-width="8.2894"/>
<path d="M936.296 388.137C724.912 323.729 387.003 236.344 453.174 502.005C537.382 840.076 1056.69 1010.29 750.092 1093.6" stroke="url(#paint14_linear_1_110)" stroke-width="8.2894"/>
<path d="M871.435 344.64C660.052 280.232 322.142 192.847 388.314 458.507C472.522 796.579 991.834 966.79 685.232 1050.1" stroke="url(#paint15_linear_1_110)" stroke-width="8.2894"/>
<path d="M805.701 302.478C594.318 238.07 256.409 150.686 322.58 416.346C406.788 754.417 926.1 924.628 619.498 1007.94" stroke="url(#paint16_linear_1_110)" stroke-width="8.2894"/>
<path d="M738.971 261.907C527.587 197.498 189.678 110.114 255.849 375.774C340.057 713.845 859.369 884.056 552.767 967.367" stroke="url(#paint17_linear_1_110)" stroke-width="8.2894"/>
<path d="M670.799 222.827C459.415 158.419 121.506 71.0347 187.677 336.695C271.885 674.766 791.197 844.977 484.595 928.288" stroke="url(#paint18_linear_1_110)" stroke-width="8.2894"/>
<path d="M602.401 185.136C391.017 120.728 53.1077 33.3433 119.279 299.003C203.487 637.075 722.799 807.286 416.197 890.596" stroke="url(#paint19_linear_1_110)" stroke-width="8.2894"/>
<path d="M533.467 148.437C322.083 84.0288 -15.826 -3.35571 50.3454 262.304C134.553 600.376 653.865 770.587 347.263 853.897" stroke="url(#paint20_linear_1_110)" stroke-width="8.2894"/>
<path d="M463.939 112.874C252.556 48.4655 -85.3538 -38.9189 -19.1823 226.741C65.0255 564.812 584.338 735.024 277.736 818.334" stroke="url(#paint21_linear_1_110)" stroke-width="8.2894"/>
<path d="M393.753 78.6302C182.37 14.2219 -155.539 -73.1626 -89.368 192.497C-5.16017 530.569 514.152 700.78 207.55 784.09" stroke="url(#paint22_linear_1_110)" stroke-width="8.2894"/>
<path d="M322.829 45.9424C111.446 -18.4659 -226.464 -105.85 -160.292 159.81C-76.0845 497.881 443.228 668.092 136.626 751.403" stroke="url(#paint23_linear_1_110)" stroke-width="8.2894"/>
<path d="M251.071 15.126C39.6875 -49.2823 -298.222 -136.667 -232.05 128.993C-147.842 467.065 371.47 637.276 64.8677 720.586" stroke="url(#paint24_linear_1_110)" stroke-width="8.2894"/>
<path d="M178.366 -13.3862C-33.0175 -77.7945 -370.927 -165.179 -304.755 100.481C-220.547 438.552 298.765 608.764 -7.83735 692.074" stroke="url(#paint25_linear_1_110)" stroke-width="8.2894"/>
<path d="M104.582 -38.9733C-106.801 -103.382 -444.711 -190.766 -378.539 74.894C-294.331 412.965 224.981 583.176 -81.6213 666.487" stroke="url(#paint26_linear_1_110)" stroke-width="8.2894"/>
<path d="M29.5703 -60.717C-181.813 -125.125 -519.723 -212.51 -453.551 53.1503C-369.343 391.222 149.969 561.433 -156.633 644.743" stroke="url(#paint27_linear_1_110)" stroke-width="8.2894"/>
<path d="M-46.7345 -77.2399C-258.118 -141.648 -596.027 -229.033 -529.856 36.6274C-445.648 374.699 73.6639 544.91 -232.938 628.22" stroke="url(#paint28_linear_1_110)" stroke-width="8.2894"/>
<path d="M-123.625 -87.3803C-335.008 -151.789 -672.918 -239.173 -606.746 26.487C-522.538 364.558 -3.22633 534.769 -309.828 618.08" stroke="url(#paint29_linear_1_110)" stroke-width="8.2894"/>
<defs>
<linearGradient id="paint0_linear_1_110" x1="1828.04" y1="638.864" x2="1518.92" y2="1285.57" gradientUnits="userSpaceOnUse">
<stop stop-color="#D9DFD0" stop-opacity="0"/>
<stop offset="0.666667" stop-color="#D9DFD0"/>
<stop offset="1" stop-color="#D9DFD0" stop-opacity="0"/>
</linearGradient>
<linearGradient id="paint1_linear_1_110" x1="1751.98" y1="656.564" x2="1442.86" y2="1303.27" gradientUnits="userSpaceOnUse">
<stop stop-color="#D9DFD0" stop-opacity="0"/>
<stop offset="0.666667" stop-color="#D9DFD0"/>
<stop offset="1" stop-color="#D9DFD0" stop-opacity="0"/>
</linearGradient>
<linearGradient id="paint2_linear_1_110" x1="1674.97" y1="669.529" x2="1365.85" y2="1316.23" gradientUnits="userSpaceOnUse">
<stop stop-color="#D9DFD0" stop-opacity="0"/>
<stop offset="0.666667" stop-color="#D9DFD0"/>
<stop offset="1" stop-color="#D9DFD0" stop-opacity="0"/>
</linearGradient>
<linearGradient id="paint3_linear_1_110" x1="1597.2" y1="676.641" x2="1288.08" y2="1323.34" gradientUnits="userSpaceOnUse">
<stop stop-color="#D9DFD0" stop-opacity="0"/>
<stop offset="0.666667" stop-color="#D9DFD0"/>
<stop offset="1" stop-color="#D9DFD0" stop-opacity="0"/>
</linearGradient>
<linearGradient id="paint4_linear_1_110" x1="1519.11" y1="676.668" x2="1209.98" y2="1323.37" gradientUnits="userSpaceOnUse">
<stop stop-color="#D9DFD0" stop-opacity="0"/>
<stop offset="0.666667" stop-color="#D9DFD0"/>
<stop offset="1" stop-color="#D9DFD0" stop-opacity="0"/>
</linearGradient>
<linearGradient id="paint5_linear_1_110" x1="1441.44" y1="668.521" x2="1132.31" y2="1315.22" gradientUnits="userSpaceOnUse">
<stop stop-color="#D9DFD0" stop-opacity="0"/>
<stop offset="0.666667" stop-color="#D9DFD0"/>
<stop offset="1" stop-color="#D9DFD0" stop-opacity="0"/>
</linearGradient>
<linearGradient id="paint6_linear_1_110" x1="1365.19" y1="651.652" x2="1056.06" y2="1298.36" gradientUnits="userSpaceOnUse">
<stop stop-color="#D9DFD0" stop-opacity="0"/>
<stop offset="0.666667" stop-color="#D9DFD0"/>
<stop offset="1" stop-color="#D9DFD0" stop-opacity="0"/>
</linearGradient>
<linearGradient id="paint7_linear_1_110" x1="1291.28" y1="626.412" x2="982.158" y2="1273.12" gradientUnits="userSpaceOnUse">
<stop stop-color="#D9DFD0" stop-opacity="0"/>
<stop offset="0.666667" stop-color="#D9DFD0"/>
<stop offset="1" stop-color="#D9DFD0" stop-opacity="0"/>
</linearGradient>
<linearGradient id="paint8_linear_1_110" x1="1220.21" y1="594.039" x2="911.089" y2="1240.74" gradientUnits="userSpaceOnUse">
<stop stop-color="#D9DFD0" stop-opacity="0"/>
<stop offset="0.666667" stop-color="#D9DFD0"/>
<stop offset="1" stop-color="#D9DFD0" stop-opacity="0"/>
</linearGradient>
<linearGradient id="paint9_linear_1_110" x1="1151.87" y1="556.244" x2="842.749" y2="1202.95" gradientUnits="userSpaceOnUse">
<stop stop-color="#D9DFD0" stop-opacity="0"/>
<stop offset="0.666667" stop-color="#D9DFD0"/>
<stop offset="1" stop-color="#D9DFD0" stop-opacity="0"/>
</linearGradient>
<linearGradient id="paint10_linear_1_110" x1="1085.71" y1="514.751" x2="776.59" y2="1161.45" gradientUnits="userSpaceOnUse">
<stop stop-color="#D9DFD0" stop-opacity="0"/>
<stop offset="0.666667" stop-color="#D9DFD0"/>
<stop offset="1" stop-color="#D9DFD0" stop-opacity="0"/>
</linearGradient>
<linearGradient id="paint11_linear_1_110" x1="1021" y1="471.036" x2="711.877" y2="1117.74" gradientUnits="userSpaceOnUse">
<stop stop-color="#D9DFD0" stop-opacity="0"/>
<stop offset="0.666667" stop-color="#D9DFD0"/>
<stop offset="1" stop-color="#D9DFD0" stop-opacity="0"/>
</linearGradient>
<linearGradient id="paint12_linear_1_110" x1="957.019" y1="426.26" x2="647.894" y2="1072.96" gradientUnits="userSpaceOnUse">
<stop stop-color="#D9DFD0" stop-opacity="0"/>
<stop offset="0.666667" stop-color="#D9DFD0"/>
<stop offset="1" stop-color="#D9DFD0" stop-opacity="0"/>
</linearGradient>
<linearGradient id="paint13_linear_1_110" x1="893.161" y1="379.879" x2="584.036" y2="1026.58" gradientUnits="userSpaceOnUse">
<stop stop-color="#D9DFD0" stop-opacity="0"/>
<stop offset="0.666667" stop-color="#D9DFD0"/>
<stop offset="1" stop-color="#D9DFD0" stop-opacity="0"/>
</linearGradient>
<linearGradient id="paint14_linear_1_110" x1="828.965" y1="336.833" x2="519.84" y2="983.537" gradientUnits="userSpaceOnUse">
<stop stop-color="#D9DFD0" stop-opacity="0"/>
<stop offset="0.666667" stop-color="#D9DFD0"/>
<stop offset="1" stop-color="#D9DFD0" stop-opacity="0"/>
</linearGradient>
<linearGradient id="paint15_linear_1_110" x1="764.105" y1="293.336" x2="454.98" y2="940.04" gradientUnits="userSpaceOnUse">
<stop stop-color="#D9DFD0" stop-opacity="0"/>
<stop offset="0.666667" stop-color="#D9DFD0"/>
<stop offset="1" stop-color="#D9DFD0" stop-opacity="0"/>
</linearGradient>
<linearGradient id="paint16_linear_1_110" x1="698.371" y1="251.174" x2="389.246" y2="897.878" gradientUnits="userSpaceOnUse">
<stop stop-color="#D9DFD0" stop-opacity="0"/>
<stop offset="0.666667" stop-color="#D9DFD0"/>
<stop offset="1" stop-color="#D9DFD0" stop-opacity="0"/>
</linearGradient>
<linearGradient id="paint17_linear_1_110" x1="631.64" y1="210.602" x2="322.515" y2="857.306" gradientUnits="userSpaceOnUse">
<stop stop-color="#D9DFD0" stop-opacity="0"/>
<stop offset="0.666667" stop-color="#D9DFD0"/>
<stop offset="1" stop-color="#D9DFD0" stop-opacity="0"/>
</linearGradient>
<linearGradient id="paint18_linear_1_110" x1="563.468" y1="171.523" x2="254.343" y2="818.227" gradientUnits="userSpaceOnUse">
<stop stop-color="#D9DFD0" stop-opacity="0"/>
<stop offset="0.666667" stop-color="#D9DFD0"/>
<stop offset="1" stop-color="#D9DFD0" stop-opacity="0"/>
</linearGradient>
<linearGradient id="paint19_linear_1_110" x1="495.07" y1="133.832" x2="185.945" y2="780.536" gradientUnits="userSpaceOnUse">
<stop stop-color="#D9DFD0" stop-opacity="0"/>
<stop offset="0.666667" stop-color="#D9DFD0"/>
<stop offset="1" stop-color="#D9DFD0" stop-opacity="0"/>
</linearGradient>
<linearGradient id="paint20_linear_1_110" x1="426.136" y1="97.1329" x2="117.011" y2="743.837" gradientUnits="userSpaceOnUse">
<stop stop-color="#D9DFD0" stop-opacity="0"/>
<stop offset="0.666667" stop-color="#D9DFD0"/>
<stop offset="1" stop-color="#D9DFD0" stop-opacity="0"/>
</linearGradient>
<linearGradient id="paint21_linear_1_110" x1="356.608" y1="61.5697" x2="47.4835" y2="708.273" gradientUnits="userSpaceOnUse">
<stop stop-color="#D9DFD0" stop-opacity="0"/>
<stop offset="0.666667" stop-color="#D9DFD0"/>
<stop offset="1" stop-color="#D9DFD0" stop-opacity="0"/>
</linearGradient>
<linearGradient id="paint22_linear_1_110" x1="286.423" y1="27.326" x2="-22.7022" y2="674.03" gradientUnits="userSpaceOnUse">
<stop stop-color="#D9DFD0" stop-opacity="0"/>
<stop offset="0.666667" stop-color="#D9DFD0"/>
<stop offset="1" stop-color="#D9DFD0" stop-opacity="0"/>
</linearGradient>
<linearGradient id="paint23_linear_1_110" x1="215.498" y1="-5.36171" x2="-93.6265" y2="641.342" gradientUnits="userSpaceOnUse">
<stop stop-color="#D9DFD0" stop-opacity="0"/>
<stop offset="0.666667" stop-color="#D9DFD0"/>
<stop offset="1" stop-color="#D9DFD0" stop-opacity="0"/>
</linearGradient>
<linearGradient id="paint24_linear_1_110" x1="143.74" y1="-36.1781" x2="-165.384" y2="610.526" gradientUnits="userSpaceOnUse">
<stop stop-color="#D9DFD0" stop-opacity="0"/>
<stop offset="0.666667" stop-color="#D9DFD0"/>
<stop offset="1" stop-color="#D9DFD0" stop-opacity="0"/>
</linearGradient>
<linearGradient id="paint25_linear_1_110" x1="71.0354" y1="-64.6903" x2="-238.089" y2="582.013" gradientUnits="userSpaceOnUse">
<stop stop-color="#D9DFD0" stop-opacity="0"/>
<stop offset="0.666667" stop-color="#D9DFD0"/>
<stop offset="1" stop-color="#D9DFD0" stop-opacity="0"/>
</linearGradient>
<linearGradient id="paint26_linear_1_110" x1="-2.74855" y1="-90.2775" x2="-311.873" y2="556.426" gradientUnits="userSpaceOnUse">
<stop stop-color="#D9DFD0" stop-opacity="0"/>
<stop offset="0.666667" stop-color="#D9DFD0"/>
<stop offset="1" stop-color="#D9DFD0" stop-opacity="0"/>
</linearGradient>
<linearGradient id="paint27_linear_1_110" x1="-77.7603" y1="-112.021" x2="-386.885" y2="534.683" gradientUnits="userSpaceOnUse">
<stop stop-color="#D9DFD0" stop-opacity="0"/>
<stop offset="0.666667" stop-color="#D9DFD0"/>
<stop offset="1" stop-color="#D9DFD0" stop-opacity="0"/>
</linearGradient>
<linearGradient id="paint28_linear_1_110" x1="-154.065" y1="-128.544" x2="-463.19" y2="518.16" gradientUnits="userSpaceOnUse">
<stop stop-color="#D9DFD0" stop-opacity="0"/>
<stop offset="0.666667" stop-color="#D9DFD0"/>
<stop offset="1" stop-color="#D9DFD0" stop-opacity="0"/>
</linearGradient>
<linearGradient id="paint29_linear_1_110" x1="-230.955" y1="-138.684" x2="-540.08" y2="508.019" gradientUnits="userSpaceOnUse">
<stop stop-color="#D9DFD0" stop-opacity="0"/>
<stop offset="0.666667" stop-color="#D9DFD0"/>
<stop offset="1" stop-color="#D9DFD0" stop-opacity="0"/>
</linearGradient>
</defs>
</svg>
